<svg width="20" height="20" viewBox="0 0 20 20" fill="none" xmlns="http://www.w3.org/2000/svg">
<mask id="mask0_2803_898" style="mask-type:alpha" maskUnits="userSpaceOnUse" x="0" y="0" width="20" height="20">
<rect width="20" height="20" fill="#C4C4C4"/>
</mask>
<g mask="url(#mask0_2803_898)">
<path d="M4.41671 15.8333H5.31254L13.9792 7.16659L13.5417 6.70825L13.0834 6.27075L4.41671 14.9374V15.8333ZM3.58337 16.6666V14.5833L14.2917 3.89575C14.4445 3.72909 14.6389 3.64575 14.875 3.64575C15.1112 3.64575 15.3125 3.72909 15.4792 3.89575L16.3542 4.79159C16.5209 4.95825 16.6042 5.15631 16.6042 5.38575C16.6042 5.61464 16.5209 5.81242 16.3542 5.97909L5.66671 16.6666H3.58337ZM13.9792 7.16659L13.5417 6.70825L13.0834 6.27075L13.9792 7.16659Z" fill="#56616B"/>
<path d="M13.9034 6.36301L13.8954 6.3546L13.8869 6.34657L13.4328 5.91307L13.2057 5.68602L14.6449 4.24965L14.6528 4.2418L14.6603 4.23361C14.7137 4.17532 14.7721 4.14575 14.875 4.14575C14.9738 4.14575 15.0457 4.17368 15.1151 4.23904L14.5215 4.83264L15.4173 5.72847L16.0007 5.14514C16.0764 5.2209 16.1042 5.29291 16.1042 5.38575C16.1042 5.47768 16.0767 5.54951 16.0007 5.62553L14.573 7.05323L14.3369 6.81714L13.9034 6.36301Z" stroke="black"/>
</g>
</svg>
